<svg xmlns="http://www.w3.org/2000/svg" xmlns:svg="http://www.w3.org/2000/svg" xmlns:xlink="http://www.w3.org/1999/xlink" id="svg2" width="64" height="64" version="1.0"><defs id="defs4"><linearGradient id="linearGradient2289"><stop style="stop-color:#ff2600;stop-opacity:1" id="stop2291" offset="0"/><stop style="stop-color:#ffd600;stop-opacity:1" id="stop2293" offset="1"/></linearGradient><linearGradient id="linearGradient1335" x1="16.889" x2="72.349" y1="77.797" y2="20.593" gradientTransform="matrix(0.545166,0,0,0.544959,0.186963,35.29511)" gradientUnits="userSpaceOnUse" xlink:href="#linearGradient2289"/><linearGradient id="linearGradient1337" x1="16.889" x2="16.889" y1="77.797" y2="19.001" gradientTransform="matrix(0.545166,0,0,0.544959,0.186963,35.29511)" gradientUnits="userSpaceOnUse" xlink:href="#linearGradient2289"/><linearGradient id="linearGradient1317" x1="16.889" x2="72.349" y1="77.797" y2="20.593" gradientTransform="matrix(0.735969,0,0,0.735801,-2.052758,-16.66733)" gradientUnits="userSpaceOnUse" xlink:href="#linearGradient2289"/><linearGradient id="linearGradient1319" x1="16.889" x2="16.889" y1="77.797" y2="19.001" gradientTransform="matrix(0.735969,0,0,0.735801,-2.052758,-16.66733)" gradientUnits="userSpaceOnUse" xlink:href="#linearGradient2289"/><linearGradient id="linearGradient1320" x1="16.889" x2="72.349" y1="77.797" y2="20.593" gradientTransform="matrix(0.735969,0,0,0.735801,-2.172329,-1.111016)" gradientUnits="userSpaceOnUse" xlink:href="#linearGradient2289"/><linearGradient id="linearGradient1322" x1="16.889" x2="16.889" y1="77.797" y2="19.001" gradientTransform="matrix(0.735969,0,0,0.735801,-2.172329,-1.111016)" gradientUnits="userSpaceOnUse" xlink:href="#linearGradient2289"/><linearGradient id="linearGradient2997" x1="130.267" x2="129.208" y1="78.743" y2="25.771" gradientTransform="matrix(0.735969,0,0,0.735801,-160.10656,-7.1914058)" gradientUnits="userSpaceOnUse" xlink:href="#linearGradient2289"/><linearGradient id="linearGradient3011" x1="34.622" x2="34.467" y1="53.509" y2="5.489" gradientUnits="userSpaceOnUse" xlink:href="#linearGradient2289"/><linearGradient id="linearGradient3030" x1="34.622" x2="34.467" y1="53.509" y2="5.489" gradientUnits="userSpaceOnUse" xlink:href="#linearGradient2289"/><linearGradient id="linearGradient3070" x1="34.622" x2="34.467" y1="53.509" y2="5.489" gradientTransform="matrix(0.99894925,0,0,0.97549134,-3.1829063,4.465557)" gradientUnits="userSpaceOnUse" xlink:href="#linearGradient2289"/><filter id="filter3281" style="color-interpolation-filters:sRGB"><feFlood id="feFlood3283" flood-color="#000" flood-opacity=".33" result="flood"/><feComposite id="feComposite3285" in="flood" in2="SourceGraphic" operator="in" result="composite1"/><feGaussianBlur id="feGaussianBlur3287" in="composite" result="blur" stdDeviation="2"/><feOffset id="feOffset3289" dx="4" dy="1" result="offset"/><feComposite id="feComposite3291" in="SourceGraphic" in2="offset" operator="over" result="composite2"/></filter><filter id="filter3293" style="color-interpolation-filters:sRGB"><feFlood id="feFlood3295" flood-color="#000" flood-opacity=".33" result="flood"/><feComposite id="feComposite3297" in="flood" in2="SourceGraphic" operator="in" result="composite1"/><feGaussianBlur id="feGaussianBlur3299" in="composite" result="blur" stdDeviation="2"/><feOffset id="feOffset3301" dx="4" dy="1" result="offset"/><feComposite id="feComposite3303" in="SourceGraphic" in2="offset" operator="over" result="composite2"/></filter><linearGradient id="linearGradient4089" x1="99.349" x2="100.409" y1="59.934" y2="10.613" gradientUnits="userSpaceOnUse" xlink:href="#linearGradient2289"/><linearGradient id="linearGradient4093" x1="99.349" x2="100.409" y1="59.934" y2="10.613" gradientUnits="userSpaceOnUse" xlink:href="#linearGradient2289"/><linearGradient id="linearGradient4096" x1="99.349" x2="100.409" y1="59.934" y2="10.613" gradientUnits="userSpaceOnUse" xlink:href="#linearGradient2289"/><linearGradient id="linearGradient4098" x1="99.349" x2="100.409" y1="59.934" y2="10.613" gradientTransform="translate(-70.003571,-2.298097)" gradientUnits="userSpaceOnUse" xlink:href="#linearGradient2289"/><filter id="filter4111" style="color-interpolation-filters:sRGB"><feFlood id="feFlood4113" flood-color="#000" flood-opacity=".33" result="flood"/><feComposite id="feComposite4115" in="flood" in2="SourceGraphic" operator="in" result="composite1"/><feGaussianBlur id="feGaussianBlur4117" in="composite" result="blur" stdDeviation="2"/><feOffset id="feOffset4119" dx="4" dy="1" result="offset"/><feComposite id="feComposite4121" in="SourceGraphic" in2="offset" operator="over" result="composite2"/></filter><filter id="filter4123" style="color-interpolation-filters:sRGB"><feFlood id="feFlood4125" flood-color="#000" flood-opacity=".33" result="flood"/><feComposite id="feComposite4127" in="flood" in2="SourceGraphic" operator="in" result="composite1"/><feGaussianBlur id="feGaussianBlur4129" in="composite" result="blur" stdDeviation="2"/><feOffset id="feOffset4131" dx="4" dy="1" result="offset"/><feComposite id="feComposite4133" in="SourceGraphic" in2="offset" operator="over" result="composite2"/></filter><linearGradient id="linearGradient1330" x1="16.889" x2="16.889" y1="77.797" y2="19.001" gradientTransform="matrix(0.735969,0,0,0.735801,-2.172329,-1.111016)" gradientUnits="userSpaceOnUse" xlink:href="#linearGradient2289-4"/><linearGradient id="linearGradient1328" x1="16.889" x2="72.349" y1="77.797" y2="20.593" gradientTransform="matrix(0.735969,0,0,0.735801,-2.172329,-1.111016)" gradientUnits="userSpaceOnUse" xlink:href="#linearGradient2289-4"/><linearGradient id="linearGradient1322-5" x1="16.889" x2="16.889" y1="77.797" y2="19.001" gradientTransform="matrix(0.735969,0,0,0.735801,-2.172329,-1.111016)" gradientUnits="userSpaceOnUse" xlink:href="#linearGradient2289-4"/><linearGradient id="linearGradient1320-4" x1="16.889" x2="72.349" y1="77.797" y2="20.593" gradientTransform="matrix(0.735969,0,0,0.735801,-2.172329,-1.111016)" gradientUnits="userSpaceOnUse" xlink:href="#linearGradient2289-4"/><linearGradient id="linearGradient1319-2" x1="16.889" x2="16.889" y1="77.797" y2="19.001" gradientTransform="matrix(0.735969,0,0,0.735801,-2.052758,-16.66733)" gradientUnits="userSpaceOnUse" xlink:href="#linearGradient2289-4"/><linearGradient id="linearGradient1317-8" x1="16.889" x2="72.349" y1="77.797" y2="20.593" gradientTransform="matrix(0.735969,0,0,0.735801,-2.052758,-16.66733)" gradientUnits="userSpaceOnUse" xlink:href="#linearGradient2289-4"/><linearGradient id="linearGradient1337-8" x1="16.889" x2="16.889" y1="77.797" y2="19.001" gradientTransform="matrix(0.545166,0,0,0.544959,0.186963,35.29511)" gradientUnits="userSpaceOnUse" xlink:href="#linearGradient2289-4"/><linearGradient id="linearGradient1335-4" x1="16.889" x2="72.349" y1="77.797" y2="20.593" gradientTransform="matrix(0.545166,0,0,0.544959,0.186963,35.29511)" gradientUnits="userSpaceOnUse" xlink:href="#linearGradient2289-4"/><linearGradient id="linearGradient2289-4"><stop id="stop2291-0" offset="0" style="stop-color:#ff2600;stop-opacity:1"/><stop id="stop2293-9" offset="1" style="stop-color:#ffd600;stop-opacity:1"/></linearGradient><linearGradient id="linearGradient3133" x1="46.882" x2="48.197" y1="91.825" y2="-1.458" gradientTransform="matrix(0.51445624,0,0,0.53856587,8.0977348,6.9450134)" gradientUnits="userSpaceOnUse" xlink:href="#linearGradient2289-4"/><linearGradient id="linearGradient3136" x1="16.889" x2="72.349" y1="77.797" y2="20.593" gradientTransform="matrix(0.51445624,0,0,0.53856587,-120.3871,-29.360443)" gradientUnits="userSpaceOnUse" xlink:href="#linearGradient2289-4"/><filter id="filter3138" style="color-interpolation-filters:sRGB"><feFlood id="feFlood3140" flood-color="#000" flood-opacity=".33" result="flood"/><feComposite id="feComposite3142" in="flood" in2="SourceGraphic" operator="in" result="composite1"/><feGaussianBlur id="feGaussianBlur3144" in="composite" result="blur" stdDeviation="2"/><feOffset id="feOffset3146" dx="4" dy="1" result="offset"/><feComposite id="feComposite3148" in="SourceGraphic" in2="offset" operator="over" result="composite2"/></filter><linearGradient id="linearGradient3055" x1="31.373" x2="30.769" y1="60.112" y2="4.01" gradientTransform="matrix(0.94969205,0,0,0.89326813,2.4216955,2.7025635)" gradientUnits="userSpaceOnUse" xlink:href="#linearGradient2289-4"/><filter id="filter3057" style="color-interpolation-filters:sRGB"><feFlood id="feFlood3059" flood-color="#000" flood-opacity=".33" result="flood"/><feComposite id="feComposite3061" in="flood" in2="SourceGraphic" operator="in" result="composite1"/><feGaussianBlur id="feGaussianBlur3063" in="composite" result="blur" stdDeviation="2"/><feOffset id="feOffset3065" dx="4" dy="1" result="offset"/><feComposite id="feComposite3067" in="SourceGraphic" in2="offset" operator="over" result="composite2"/></filter><filter id="filter3069" style="color-interpolation-filters:sRGB"><feFlood id="feFlood3071" flood-color="#000" flood-opacity=".33" result="flood"/><feComposite id="feComposite3073" in="flood" in2="SourceGraphic" operator="in" result="composite1"/><feGaussianBlur id="feGaussianBlur3075" in="composite" result="blur" stdDeviation="2"/><feOffset id="feOffset3077" dx="4" dy="1" result="offset"/><feComposite id="feComposite3079" in="SourceGraphic" in2="offset" operator="over" result="composite2"/></filter></defs><metadata id="metadata7"/><g id="layer1"><path id="path4107" d="m 32.154792,4.6214684 c -6.271873,0.05843 -14.928,0.744277 -16.110377,1.388109 C 13.679661,7.297237 0.77557733,29.32852 0.80334443,31.859522 c 0.02777,2.531005 13.46215957,24.293967 15.85468157,25.537309 2.392519,1.243342 29.481,1.287521 31.845753,-1.41e-4 C 50.868531,56.109028 63.897618,33.765246 63.869851,31.234242 63.842081,28.703238 50.157689,6.540262 47.765167,5.2969214 46.568907,4.6752504 38.426665,4.5630384 32.154792,4.6214684 z m 0.30429,8.4025596 c 4.90437,-0.047 9.661849,0.425368 10.597281,0.92538 1.870861,1.000021 10.667726,15.499216 10.689439,17.534904 C 53.767512,33.52 44.703434,48.643484 42.854286,49.67915 41.005138,50.714818 23.631044,50.742687 21.760184,49.742667 19.889321,48.742646 10.449106,33.795226 10.427392,31.759537 10.405682,29.72385 19.860508,15.185189 21.709656,14.14952 c 0.924575,-0.517833 5.845056,-1.078498 10.749426,-1.125492 z" style="fill:#000;fill-opacity:1;filter:url(#filter3057)"/><path id="path2297" d="m 12.848737,18.660684 6.998916,-7.560243 12.488019,13.136676 12.867701,-13.261676 7.451909,7.435243 -13.544847,13.503584 13.341856,13.152864 -6.670928,6.94334 L 32.335672,39.351071 19.323785,52.010472 12.426724,45.086347 25.565591,32.039268 z" style="fill:url(#linearGradient3133);fill-opacity:1;fill-rule:evenodd;stroke:#000;stroke-width:1.31593215;stroke-linecap:butt;stroke-linejoin:miter;stroke-miterlimit:4;stroke-opacity:1;stroke-dasharray:none;filter:url(#filter3069)"/><path style="fill:url(#linearGradient3055);fill-opacity:1" id="path3305" d="M 31.793607,5.7202825 C 24.936514,5.7854875 18.319304,6.2021256 17.026601,6.9206116 14.441196,8.3575834 2.2463386,29.063913 2.2766972,31.888398 2.3070579,34.712884 14.945039,54.814527 17.560803,56.20204 20.176566,57.589553 45.00941,57.359866 47.594814,55.922894 50.180219,54.485922 62.625078,34.154591 62.594719,31.330106 62.564358,28.505621 49.613876,7.8135634 46.998112,6.4260506 45.690231,5.732294 38.650699,5.6550774 31.793607,5.7202825 z m 0.18436,5.9275485 c 5.36199,-0.05245 10.575046,0.320704 11.597761,0.878694 2.045429,1.115978 11.686445,16.671419 11.710184,18.943154 0.02374,2.271736 -9.523004,18.3578 -11.544693,19.513557 -2.02169,1.155758 -20.789608,0.763657 -22.835036,-0.352353 C 18.86075,49.514938 8.8958589,34.166602 8.8721197,31.894866 8.8483797,29.62313 19.328834,13.7806 21.350523,12.624842 c 1.010846,-0.577879 5.26545,-0.924567 10.627444,-0.977011 z"/><path style="fill:none" id="path3077" d="M 15.390198,55.682743 C 10.447144,47.360612 3.6450957,35.733851 3.6919881,35.686959 c 0.031272,-0.03127 0.5023581,0.289334 1.0468575,0.712459 0.5444994,0.423125 1.0414462,0.769317 1.1043264,0.769317 0.06288,0 2.6329414,4.276521 5.711247,9.50338 l 5.59692,9.503379 2.159128,0.007 2.159126,0.007 -0.34365,-0.584653 C 20.936937,55.28323 18.053514,50.518786 14.718339,45.017137 11.383164,39.515488 8.6543842,34.929294 8.6543842,34.825595 c 0,-0.103699 0.2455542,-0.59277 0.545676,-1.086823 0.3001218,-0.494053 0.545676,-0.941721 0.545676,-0.994816 0,-0.05309 -0.2788317,-0.09654 -0.619626,-0.09654 -0.8505388,0 -1.0953557,-0.488405 -1.0953557,-2.185211 0,-1.90734 -0.048411,-1.868066 2.3051195,-1.870072 l 1.982335,-0.0017 1.052375,-1.721616 c 0.578806,-0.94689 1.052375,-1.785869 1.052375,-1.8644 0,-0.07853 -0.829918,-0.162484 -1.844262,-0.186561 l -1.844263,-0.04378 4.480955,-7.327649 4.480953,-7.32765 12.466741,-0.0399 12.466738,-0.0399 0.517892,0.854518 0.517892,0.854518 2.335995,0.04287 2.335994,0.04287 2.742626,4.521316 c 1.508447,2.486723 4.136212,6.819001 5.839482,9.627283 1.703268,2.808283 3.157599,5.105969 3.231846,5.105969 0.256907,0 0.13186,-0.393635 -0.411085,-1.294044 -0.299901,-0.497351 -0.545275,-0.935841 -0.545275,-0.974422 0,-0.03858 0.310833,-0.07015 0.69074,-0.07015 0.575204,0 0.699074,-0.05324 0.740561,-0.318272 0.03599,-0.229934 0.273254,0.06215 0.854835,1.052375 0.702767,1.196557 0.780303,1.410253 0.610448,1.682462 -0.107012,0.171499 -0.377881,0.627528 -0.601929,1.013399 l -0.407361,0.701583 0.533953,0.857491 c 0.293674,0.47162 0.535536,0.950306 0.537472,1.063747 0.0019,0.113441 -3.098537,5.322698 -6.889942,11.576127 l -6.893462,11.36987 -16.876654,0 -16.876655,0 -1.226996,-2.065773 z"/></g></svg>